<svg width="400" height="400" viewBox="0 0 400 400" fill="none" xmlns="http://www.w3.org/2000/svg">
<g opacity="0.45">
<path d="M226.193 275.294L258.462 277.012C258.462 277.012 243.694 282.954 235.347 286.838C227 290.721 215.817 296.854 215.817 296.854L183.548 295.136C183.548 295.136 197.73 289.157 206.066 285.278C214.401 281.4 226.193 275.294 226.193 275.294Z" fill="#B3B3B3"/>
<path d="M226.193 275.294L258.462 277.012C263.162 275.548 287.591 272.135 287.591 272.135L285.671 268.69L276.326 270.249L287.045 266.192L282.264 265.937L270.554 270.456L264.591 271.682L281.349 263.574L287.909 262.381L286.307 261.267L282.531 262.095L272.372 261.554L268.342 255.682L256.314 257.87L259.556 264.728L246.956 269.971C241.34 269.072 240.052 265.747 240.052 265.747L246.498 262.747L244.896 261.633L238.641 263.614L237.725 261.252L221.527 264.76C224.926 266.484 230.618 271.004 226.193 275.294Z" fill="#B3B3B3"/>
<path d="M333.432 240.891C323.026 245.734 304.423 249.118 291.881 248.45C279.34 247.782 277.61 243.315 288.016 238.473C298.423 233.631 317.026 230.247 329.567 230.915C342.109 231.583 343.839 236.049 333.432 240.891Z" fill="#B3B3B3"/>
<path d="M337.295 250.869C326.888 255.711 308.285 259.095 295.743 258.427C283.202 257.759 281.472 253.293 291.878 248.45C302.285 243.608 320.888 240.224 333.43 240.892C345.971 241.56 347.701 246.027 337.295 250.869Z" fill="#B3B3B3"/>
<path d="M323.235 259.89C312.828 264.732 294.225 268.116 281.683 267.449C269.142 266.781 267.412 262.314 277.818 257.472C288.225 252.63 306.828 249.246 319.37 249.914C331.911 250.581 333.641 255.048 323.235 259.89Z" fill="#B3B3B3"/>
<path d="M362.647 258.904C352.24 263.746 333.637 267.13 321.095 266.462C308.554 265.795 306.824 261.328 317.23 256.486C327.637 251.644 346.24 248.26 358.782 248.927C371.323 249.595 373.053 254.062 362.647 258.904Z" fill="#B3B3B3"/>
<path d="M323.743 273.288C313.336 278.13 294.733 281.514 282.191 280.847C269.65 280.179 267.92 275.712 278.327 270.87C288.733 266.028 307.336 262.644 319.878 263.312C332.419 263.979 334.149 268.446 323.743 273.288Z" fill="#B3B3B3"/>
<path d="M336.635 267.288C326.229 272.131 307.625 275.515 295.084 274.847C282.543 274.179 280.812 269.712 291.219 264.87C301.626 260.028 320.229 256.644 332.77 257.312C345.312 257.98 347.042 262.446 336.635 267.288Z" fill="#B3B3B3"/>
<path d="M295.333 257.376C284.926 262.218 266.323 265.602 253.782 264.934C241.24 264.266 239.51 259.8 249.917 254.958C260.323 250.115 278.926 246.731 291.468 247.399C304.009 248.067 305.739 252.534 295.333 257.376Z" fill="#B3B3B3"/>
<path d="M296.658 248.705C286.251 253.547 267.648 256.931 255.106 256.263C242.565 255.596 240.835 251.129 251.241 246.287C261.648 241.445 280.251 238.061 292.793 238.728C305.334 239.396 307.064 243.863 296.658 248.705Z" fill="#B3B3B3"/>
<path d="M277.233 258.984C266.826 263.826 248.223 267.21 235.682 266.543C223.14 265.875 221.41 261.408 231.817 256.566C242.223 251.724 260.827 248.34 273.368 249.008C285.909 249.675 287.64 254.142 277.233 258.984Z" fill="#B3B3B3"/>
<path d="M247.811 264.616C237.405 269.458 218.802 272.842 206.26 272.175C193.719 271.507 191.989 267.04 202.395 262.198C212.802 257.356 231.405 253.972 243.946 254.64C256.488 255.307 258.218 259.774 247.811 264.616Z" fill="#B3B3B3"/>
<path d="M220.142 265.715C209.735 270.557 191.132 273.941 178.591 273.273C166.049 272.606 164.319 268.139 174.726 263.297C185.132 258.455 203.736 255.071 216.277 255.738C228.818 256.406 230.549 260.873 220.142 265.715Z" fill="#B3B3B3"/>
<path d="M191.548 262.907C184.702 266.092 172.463 268.319 164.212 267.879C155.961 267.44 154.823 264.501 161.669 261.316C168.516 258.13 180.755 255.904 189.006 256.343C197.257 256.783 198.395 259.721 191.548 262.907Z" fill="#B3B3B3"/>
<path d="M217.792 258.133C210.945 261.318 198.707 263.545 190.456 263.105C182.205 262.666 181.066 259.728 187.913 256.542C194.759 253.356 206.998 251.13 215.249 251.569C223.5 252.009 224.638 254.947 217.792 258.133Z" fill="#B3B3B3"/>
<path d="M272.029 244.05C265.183 247.235 252.944 249.462 244.693 249.022C236.442 248.583 235.304 245.645 242.15 242.459C248.997 239.273 261.236 237.047 269.486 237.486C277.737 237.926 278.876 240.864 272.029 244.05Z" fill="#B3B3B3"/>
<path d="M198.668 257.114C191.822 260.3 179.583 262.526 171.332 262.087C163.081 261.647 161.942 258.709 168.789 255.523C175.636 252.337 187.874 250.111 196.125 250.55C204.376 250.99 205.515 253.928 198.668 257.114Z" fill="#B3B3B3"/>
<path d="M353.046 241.678C346.2 244.864 333.961 247.09 325.71 246.651C317.459 246.212 316.321 243.273 323.167 240.088C330.014 236.902 342.252 234.676 350.503 235.115C358.754 235.554 359.893 238.493 353.046 241.678Z" fill="#B3B3B3"/>
<path d="M312.766 234.392C305.919 237.577 293.681 239.804 285.43 239.364C277.179 238.925 276.04 235.986 282.887 232.801C289.733 229.615 301.972 227.389 310.223 227.828C318.474 228.267 319.613 231.206 312.766 234.392Z" fill="#B3B3B3"/>
<path d="M341.349 223.572C334.502 226.758 322.263 228.984 314.013 228.545C305.762 228.105 304.623 225.167 311.47 221.981C318.316 218.795 330.555 216.569 338.806 217.008C347.057 217.448 348.195 220.386 341.349 223.572Z" fill="#B3B3B3"/>
<path d="M346.765 228.489C339.918 231.674 327.68 233.9 319.429 233.461C311.178 233.022 310.039 230.083 316.886 226.898C323.732 223.712 335.971 221.486 344.222 221.925C352.473 222.364 353.612 225.303 346.765 228.489Z" fill="#B3B3B3"/>
<path d="M360.75 234.375C353.904 237.561 341.665 239.787 333.414 239.348C325.163 238.908 324.025 235.97 330.871 232.784C337.718 229.598 349.957 227.372 358.207 227.811C366.458 228.251 367.597 231.189 360.75 234.375Z" fill="#B3B3B3"/>
<path d="M240.803 248.045C233.956 251.231 221.717 253.457 213.467 253.018C205.216 252.578 204.077 249.64 210.924 246.454C217.77 243.268 230.009 241.042 238.26 241.481C246.511 241.921 247.649 244.859 240.803 248.045Z" fill="#B3B3B3"/>
<path d="M291.462 233.771C284.615 236.957 272.376 239.183 264.125 238.744C255.875 238.305 254.736 235.366 261.583 232.18C268.429 228.995 280.668 226.768 288.919 227.208C297.17 227.647 298.308 230.586 291.462 233.771Z" fill="#B3B3B3"/>
<path d="M293.698 239.548C286.852 242.734 274.613 244.96 266.362 244.521C258.111 244.082 256.973 241.143 263.819 237.957C270.666 234.772 282.905 232.545 291.155 232.985C299.406 233.424 300.545 236.363 293.698 239.548Z" fill="#B3B3B3"/>
<path d="M216.925 249.86C210.079 253.045 197.84 255.271 189.589 254.832C181.338 254.393 180.2 251.454 187.046 248.269C193.893 245.083 206.132 242.857 214.383 243.296C222.633 243.735 223.772 246.674 216.925 249.86Z" fill="#B3B3B3"/>
<path d="M263.237 239.468C256.391 242.654 244.152 244.88 235.901 244.441C227.65 244.001 226.512 241.063 233.358 237.877C240.205 234.691 252.444 232.465 260.694 232.904C268.945 233.344 270.084 236.282 263.237 239.468Z" fill="#B3B3B3"/>
<path d="M320.093 229.125C313.246 232.31 301.007 234.537 292.757 234.097C284.506 233.658 283.367 230.72 290.214 227.534C297.06 224.348 309.299 222.122 317.55 222.561C325.801 223.001 326.939 225.939 320.093 229.125Z" fill="#B3B3B3"/>
<path d="M357.064 270.176C350.218 273.362 337.979 275.588 329.728 275.149C321.477 274.71 320.339 271.771 327.185 268.586C334.032 265.4 346.27 263.174 354.521 263.613C362.772 264.052 363.911 266.991 357.064 270.176Z" fill="#B3B3B3"/>
<path d="M385.519 268.093C378.673 271.278 366.434 273.505 358.183 273.065C349.932 272.626 348.794 269.687 355.64 266.502C362.487 263.316 374.726 261.09 382.976 261.529C391.227 261.968 392.366 264.907 385.519 268.093Z" fill="#B3B3B3"/>
<path d="M372.932 262.794C366.086 265.979 353.847 268.206 345.596 267.766C337.345 267.327 336.207 264.388 343.053 261.203C349.9 258.017 362.138 255.791 370.389 256.23C378.64 256.67 379.779 259.608 372.932 262.794Z" fill="#B3B3B3"/>
<path d="M367.214 245.004C360.367 248.19 348.128 250.416 339.877 249.977C331.626 249.537 330.488 246.599 337.335 243.413C344.181 240.228 356.42 238.001 364.671 238.441C372.922 238.88 374.06 241.818 367.214 245.004Z" fill="#B3B3B3"/>
<path d="M254.18 252.356C247.334 255.542 235.095 257.768 226.844 257.329C218.593 256.89 217.455 253.951 224.301 250.765C231.148 247.58 243.387 245.353 251.637 245.793C259.888 246.232 261.027 249.171 254.18 252.356Z" fill="#B3B3B3"/>
<path d="M348.752 251.735C341.906 254.921 329.667 257.147 321.416 256.708C313.165 256.269 312.027 253.33 318.873 250.144C325.72 246.959 337.959 244.732 346.209 245.172C354.46 245.611 355.599 248.55 348.752 251.735Z" fill="#B3B3B3"/>
</g>
<rect x="155.143" y="187.049" width="75.8906" height="45.3761" rx="2" transform="rotate(-105 155.143 187.049)" fill="#F98757"/>
<rect x="199.559" y="196.245" width="75.8906" height="45.376" rx="2" transform="rotate(-75 199.559 196.245)" fill="#0090FF"/>
<rect x="239.65" y="244.087" width="75.8906" height="45.376" rx="2" transform="rotate(-60 239.65 244.087)" fill="#FAA301"/>
<rect x="171.227" y="299.839" width="75.8906" height="45.376" rx="2" transform="rotate(-90 171.227 299.839)" fill="#009393"/>
<rect x="122.945" y="240.916" width="75.8907" height="45.3761" rx="2" transform="rotate(-120 122.945 240.916)" fill="#00D0FF"/>
</svg>
