<svg width="179" height="253" viewBox="0 0 179 253" fill="none" xmlns="http://www.w3.org/2000/svg">
<g clip-path="url(#clip0_770_426)">
<circle cx="81" cy="34" r="34" fill="#D9D9D9" fill-opacity="0.2"/>
<circle cx="72" cy="232" r="17" fill="#D9D9D9" fill-opacity="0.2"/>
<circle cx="144" cy="120" r="34" fill="#D9D9D9" fill-opacity="0.2"/>
<path d="M29.5 191L52.4497 230.75H6.55033L29.5 191Z" fill="#D9D9D9" fill-opacity="0.2"/>
<path d="M164.12 42.266L138.854 86.0281L113.588 42.266L164.12 42.266Z" fill="#D9D9D9" fill-opacity="0.2"/>
<path d="M108.783 159.748L132.28 159.748L120.531 180.097L108.783 159.748Z" fill="#D9D9D9"/>
<rect x="40" y="123.891" width="75.8906" height="45.3761" rx="2" transform="rotate(-90 40 123.891)" fill="#F98757"/>
<rect x="71" y="161.891" width="75.8906" height="45.376" rx="2" transform="rotate(-90 71 161.891)" fill="#0090FF"/>
<rect x="44" y="204.891" width="75.8906" height="45.376" rx="2" transform="rotate(-90 44 204.891)" fill="#FAA301"/>
<rect x="81.2256" y="252.839" width="75.8906" height="45.376" rx="2" transform="rotate(-90 81.2256 252.839)" fill="#009393"/>
<rect x="10.9326" y="213.151" width="75.8907" height="45.3761" rx="2" transform="rotate(-90 10.9326 213.151)" fill="#00D0FF"/>
<circle cx="17" cy="120" r="17" fill="#D9D9D9" fill-opacity="0.2"/>
</g>
<defs>
<clipPath id="clip0_770_426">
<rect width="178.707" height="253" fill="white"/>
</clipPath>
</defs>
</svg>
