<svg width="207" height="310" viewBox="0 0 207 310" fill="none" xmlns="http://www.w3.org/2000/svg">
<g clip-path="url(#clip0_769_406)">
<path d="M44.4856 1C44.4856 1 11.2962 101.233 116.839 150.353C222.382 199.474 194.503 309 194.503 309" stroke="#F9AD57"/>
<path d="M34.8294 1C34.8294 1 1.63992 101.233 107.183 150.353C212.726 199.474 184.847 309 184.847 309" stroke="#F9AD57"/>
<path d="M29.5188 1C29.5188 1 -3.67063 101.233 101.872 150.353C207.415 199.474 179.536 309 179.536 309" stroke="#F9AD57"/>
<path d="M25.5364 1C25.5364 1 -7.65305 101.233 97.8898 150.353C203.433 199.474 175.554 309 175.554 309" stroke="#F9AD57"/>
<path d="M14.9153 1C14.9153 1 -18.2741 101.233 87.2688 150.353C192.812 199.474 164.933 309 164.933 309" stroke="#F9AD57"/>
<path d="M5.62234 1C5.62234 1 -27.5671 101.233 77.9758 150.353C183.519 199.474 155.64 309 155.64 309" stroke="#F9AD57"/>
<line x1="62.3536" y1="34.6464" x2="179.354" y2="151.646" stroke="#00D0FF"/>
<line x1="71.3536" y1="34.6464" x2="188.354" y2="151.646" stroke="#00D0FF"/>
<line x1="80.3536" y1="34.6464" x2="197.354" y2="151.646" stroke="#00D0FF"/>
<line x1="89.3536" y1="34.6464" x2="206.354" y2="151.646" stroke="#00D0FF"/>
<rect x="69" y="143.891" width="75.8906" height="45.3761" rx="2" transform="rotate(-90 69 143.891)" fill="#F98757"/>
<rect x="100" y="181.891" width="75.8906" height="45.376" rx="2" transform="rotate(-90 100 181.891)" fill="#0090FF"/>
<rect x="73" y="224.891" width="75.8906" height="45.376" rx="2" transform="rotate(-90 73 224.891)" fill="#FAA301"/>
<rect x="110.226" y="272.839" width="75.8906" height="45.376" rx="2" transform="rotate(-90 110.226 272.839)" fill="#009393"/>
<rect x="39.9326" y="233.151" width="75.8907" height="45.3761" rx="2" transform="rotate(-90 39.9326 233.151)" fill="#00D0FF"/>
</g>
<defs>
<clipPath id="clip0_769_406">
<rect width="207" height="310" fill="white"/>
</clipPath>
</defs>
</svg>
