<svg width="477" height="236" viewBox="0 0 477 236" fill="none" xmlns="http://www.w3.org/2000/svg">
<g clip-path="url(#clip0_753_1565)">
<rect x="3" y="2" width="474" height="236" fill="white"/>
<rect width="234" height="234" transform="translate(3.5 2)" fill="white"/>
<g opacity="0.45">
<path d="M135.824 163.047L154.702 164.052C154.702 164.052 146.063 167.528 141.18 169.8C136.297 172.072 129.755 175.66 129.755 175.66L110.877 174.654C110.877 174.654 119.173 171.157 124.05 168.888C128.927 166.619 135.824 163.047 135.824 163.047Z" fill="#B3B3B3"/>
<path d="M135.824 163.047L154.702 164.052C157.452 163.196 171.743 161.199 171.743 161.199L170.619 159.184L165.152 160.096L171.423 157.722L168.626 157.573L161.776 160.217L158.287 160.934L168.091 156.191L171.929 155.493L170.991 154.841L168.782 155.325L162.839 155.009L160.482 151.574L153.445 152.854L155.342 156.866L147.971 159.933C144.686 159.407 143.932 157.462 143.932 157.462L147.703 155.707L146.766 155.055L143.106 156.214L142.571 154.832L133.095 156.885C135.083 157.893 138.413 160.537 135.824 163.047Z" fill="#B3B3B3"/>
<path d="M198.56 142.921C192.472 145.754 181.589 147.734 174.252 147.343C166.916 146.952 165.903 144.339 171.991 141.507C178.079 138.674 188.962 136.694 196.299 137.085C203.635 137.476 204.648 140.089 198.56 142.921Z" fill="#B3B3B3"/>
<path d="M200.819 148.758C194.731 151.591 183.848 153.57 176.512 153.18C169.175 152.789 168.163 150.176 174.251 147.343C180.339 144.511 191.221 142.531 198.558 142.922C205.895 143.312 206.907 145.925 200.819 148.758Z" fill="#B3B3B3"/>
<path d="M192.594 154.036C186.506 156.868 175.623 158.848 168.286 158.457C160.95 158.067 159.938 155.454 166.025 152.621C172.113 149.788 182.996 147.809 190.333 148.199C197.67 148.59 198.682 151.203 192.594 154.036Z" fill="#B3B3B3"/>
<path d="M215.65 153.459C209.562 156.291 198.679 158.271 191.342 157.88C184.006 157.49 182.994 154.877 189.081 152.044C195.169 149.211 206.052 147.232 213.389 147.622C220.726 148.013 221.738 150.626 215.65 153.459Z" fill="#B3B3B3"/>
<path d="M192.891 161.873C186.803 164.706 175.92 166.686 168.584 166.295C161.247 165.904 160.235 163.291 166.323 160.459C172.411 157.626 183.293 155.647 190.63 156.037C197.967 156.428 198.979 159.041 192.891 161.873Z" fill="#B3B3B3"/>
<path d="M200.433 158.364C194.345 161.196 183.463 163.176 176.126 162.785C168.789 162.395 167.777 159.782 173.865 156.949C179.953 154.116 190.836 152.137 198.172 152.527C205.509 152.918 206.521 155.531 200.433 158.364Z" fill="#B3B3B3"/>
<path d="M176.271 152.565C170.183 155.397 159.301 157.377 151.964 156.986C144.627 156.596 143.615 153.983 149.703 151.15C155.791 148.317 166.674 146.338 174.01 146.728C181.347 147.119 182.359 149.732 176.271 152.565Z" fill="#B3B3B3"/>
<path d="M177.046 147.492C170.958 150.325 160.076 152.305 152.739 151.914C145.402 151.523 144.39 148.91 150.478 146.078C156.566 143.245 167.449 141.265 174.785 141.656C182.122 142.047 183.134 144.66 177.046 147.492Z" fill="#B3B3B3"/>
<path d="M165.683 153.506C159.595 156.338 148.712 158.318 141.375 157.927C134.039 157.537 133.027 154.924 139.114 152.091C145.202 149.258 156.085 147.279 163.422 147.669C170.759 148.06 171.771 150.673 165.683 153.506Z" fill="#B3B3B3"/>
<path d="M148.471 156.8C142.383 159.633 131.501 161.613 124.164 161.222C116.827 160.831 115.815 158.218 121.903 155.386C127.991 152.553 138.874 150.573 146.21 150.964C153.547 151.355 154.559 153.968 148.471 156.8Z" fill="#B3B3B3"/>
<path d="M132.285 157.443C126.197 160.276 115.314 162.255 107.977 161.865C100.641 161.474 99.6283 158.861 105.716 156.028C111.804 153.196 122.687 151.216 130.024 151.607C137.36 151.997 138.373 154.611 132.285 157.443Z" fill="#B3B3B3"/>
<path d="M115.558 155.8C111.552 157.664 104.393 158.966 99.5658 158.709C94.739 158.452 94.0731 156.733 98.0783 154.87C102.084 153.006 109.243 151.704 114.07 151.961C118.897 152.218 119.563 153.937 115.558 155.8Z" fill="#B3B3B3"/>
<path d="M130.91 153.008C126.905 154.871 119.745 156.174 114.918 155.917C110.091 155.66 109.425 153.941 113.431 152.077C117.436 150.213 124.596 148.911 129.422 149.168C134.249 149.425 134.915 151.144 130.91 153.008Z" fill="#B3B3B3"/>
<path d="M162.639 144.769C158.634 146.633 151.474 147.935 146.647 147.678C141.82 147.421 141.154 145.702 145.16 143.838C149.165 141.975 156.324 140.672 161.151 140.929C165.978 141.186 166.644 142.905 162.639 144.769Z" fill="#B3B3B3"/>
<path d="M119.722 152.412C115.717 154.275 108.558 155.578 103.731 155.321C98.904 155.064 98.238 153.344 102.243 151.481C106.248 149.617 113.408 148.315 118.235 148.572C123.062 148.829 123.728 150.548 119.722 152.412Z" fill="#B3B3B3"/>
<path d="M210.034 143.382C206.028 145.245 198.869 146.548 194.042 146.291C189.215 146.034 188.549 144.315 192.554 142.451C196.56 140.588 203.719 139.285 208.546 139.542C213.373 139.799 214.039 141.518 210.034 143.382Z" fill="#B3B3B3"/>
<path d="M186.47 139.119C182.465 140.983 175.305 142.285 170.478 142.028C165.651 141.771 164.985 140.052 168.991 138.188C172.996 136.325 180.156 135.022 184.982 135.279C189.809 135.536 190.475 137.255 186.47 139.119Z" fill="#B3B3B3"/>
<path d="M203.191 132.79C199.186 134.653 192.026 135.955 187.199 135.698C182.372 135.441 181.706 133.722 185.712 131.859C189.717 129.995 196.877 128.693 201.703 128.95C206.53 129.207 207.196 130.926 203.191 132.79Z" fill="#B3B3B3"/>
<path d="M206.359 135.666C202.354 137.529 195.194 138.832 190.367 138.575C185.541 138.318 184.875 136.599 188.88 134.735C192.885 132.871 200.045 131.569 204.872 131.826C209.698 132.083 210.364 133.802 206.359 135.666Z" fill="#B3B3B3"/>
<path d="M214.541 139.109C210.535 140.973 203.376 142.275 198.549 142.018C193.722 141.761 193.056 140.042 197.061 138.179C201.067 136.315 208.226 135.013 213.053 135.27C217.88 135.527 218.546 137.246 214.541 139.109Z" fill="#B3B3B3"/>
<path d="M144.371 147.106C140.366 148.97 133.206 150.272 128.38 150.015C123.553 149.758 122.887 148.039 126.892 146.175C130.897 144.312 138.057 143.009 142.884 143.266C147.711 143.524 148.377 145.243 144.371 147.106Z" fill="#B3B3B3"/>
<path d="M174.007 138.756C170.002 140.62 162.842 141.922 158.015 141.665C153.188 141.408 152.522 139.689 156.528 137.825C160.533 135.962 167.692 134.659 172.519 134.916C177.346 135.173 178.012 136.893 174.007 138.756Z" fill="#B3B3B3"/>
<path d="M175.315 142.136C171.31 143.999 164.15 145.302 159.323 145.045C154.497 144.788 153.831 143.069 157.836 141.205C161.841 139.341 169.001 138.039 173.828 138.296C178.654 138.553 179.32 140.272 175.315 142.136Z" fill="#B3B3B3"/>
<path d="M130.403 148.168C126.398 150.031 119.238 151.334 114.411 151.077C109.585 150.82 108.919 149.101 112.924 147.237C116.929 145.373 124.089 144.071 128.916 144.328C133.742 144.585 134.408 146.304 130.403 148.168Z" fill="#B3B3B3"/>
<path d="M157.495 142.089C153.49 143.952 146.33 145.255 141.504 144.998C136.677 144.741 136.011 143.022 140.016 141.158C144.021 139.294 151.181 137.992 156.008 138.249C160.835 138.506 161.501 140.225 157.495 142.089Z" fill="#B3B3B3"/>
<path d="M190.756 136.038C186.751 137.902 179.591 139.204 174.764 138.947C169.938 138.69 169.272 136.971 173.277 135.107C177.282 133.244 184.442 131.941 189.269 132.198C194.095 132.455 194.761 134.174 190.756 136.038Z" fill="#B3B3B3"/>
<path d="M212.384 160.053C208.379 161.917 201.219 163.219 196.392 162.962C191.566 162.705 190.9 160.986 194.905 159.122C198.91 157.259 206.07 155.956 210.897 156.213C215.723 156.47 216.389 158.19 212.384 160.053Z" fill="#B3B3B3"/>
<path d="M229.03 158.834C225.025 160.698 217.865 162 213.039 161.743C208.212 161.486 207.546 159.767 211.551 157.903C215.556 156.04 222.716 154.737 227.543 154.994C232.37 155.251 233.036 156.97 229.03 158.834Z" fill="#B3B3B3"/>
<path d="M221.667 155.734C217.662 157.598 210.502 158.9 205.675 158.643C200.848 158.386 200.183 156.667 204.188 154.804C208.193 152.94 215.353 151.638 220.179 151.895C225.006 152.152 225.672 153.871 221.667 155.734Z" fill="#B3B3B3"/>
<path d="M218.322 145.327C214.316 147.191 207.157 148.493 202.33 148.236C197.503 147.979 196.837 146.26 200.842 144.397C204.848 142.533 212.007 141.231 216.834 141.488C221.661 141.745 222.327 143.464 218.322 145.327Z" fill="#B3B3B3"/>
<path d="M152.197 149.628C148.192 151.492 141.032 152.794 136.205 152.537C131.379 152.28 130.713 150.561 134.718 148.698C138.723 146.834 145.883 145.532 150.71 145.789C155.536 146.046 156.202 147.765 152.197 149.628Z" fill="#B3B3B3"/>
<path d="M207.522 149.265C203.516 151.129 196.357 152.431 191.53 152.174C186.703 151.917 186.037 150.198 190.042 148.334C194.048 146.471 201.207 145.168 206.034 145.425C210.861 145.682 211.527 147.401 207.522 149.265Z" fill="#B3B3B3"/>
</g>
<rect x="94.2598" y="111.424" width="44.396" height="26.545" rx="1.17" transform="rotate(-105 94.2598 111.424)" fill="#F98757"/>
<rect x="120.244" y="116.803" width="44.396" height="26.545" rx="1.17" transform="rotate(-75 120.244 116.803)" fill="#0090FF"/>
<rect x="143.697" y="144.791" width="44.396" height="26.545" rx="1.17" transform="rotate(-60 143.697 144.791)" fill="#FAA301"/>
<rect x="103.67" y="177.406" width="44.396" height="26.545" rx="1.17" transform="rotate(-90 103.67 177.406)" fill="#009393"/>
<rect x="75.4238" y="142.936" width="44.396" height="26.545" rx="1.17" transform="rotate(-120 75.4238 142.936)" fill="#00D0FF"/>
<path d="M256.2 170V121H285.32V131.5H266.7V138.5H281.96V149H266.7V170H256.2ZM302.124 170.91C298.904 170.91 295.964 170.082 293.304 168.425C290.667 166.768 288.555 164.54 286.969 161.74C285.405 158.94 284.624 155.848 284.624 152.465C284.624 149.922 285.079 147.542 285.989 145.325C286.899 143.085 288.147 141.125 289.734 139.445C291.344 137.742 293.21 136.412 295.334 135.455C297.457 134.498 299.72 134.02 302.124 134.02C304.924 134.02 307.479 134.638 309.789 135.875C312.122 137.088 314.082 138.745 315.669 140.845C317.279 142.922 318.422 145.267 319.099 147.88C319.775 150.493 319.845 153.188 319.309 155.965H295.964C296.29 156.782 296.722 157.528 297.259 158.205C297.819 158.858 298.495 159.383 299.289 159.78C300.105 160.177 301.05 160.387 302.124 160.41C303.15 160.433 304.095 160.212 304.959 159.745C305.845 159.278 306.615 158.648 307.269 157.855L317.979 160.34C316.555 163.443 314.432 165.987 311.609 167.97C308.785 169.93 305.624 170.91 302.124 170.91ZM295.579 148.265H308.704C308.377 147.262 307.887 146.375 307.234 145.605C306.58 144.835 305.81 144.228 304.924 143.785C304.06 143.342 303.127 143.12 302.124 143.12C301.144 143.12 300.21 143.342 299.324 143.785C298.46 144.228 297.702 144.835 297.049 145.605C296.419 146.375 295.929 147.262 295.579 148.265ZM333.822 170.63C332.048 170.467 330.345 170.082 328.712 169.475C327.078 168.868 325.62 168.04 324.337 166.99C323.053 165.94 322.038 164.657 321.292 163.14L330.112 159.36C330.345 159.617 330.672 159.943 331.092 160.34C331.512 160.713 332.037 161.052 332.667 161.355C333.32 161.658 334.102 161.81 335.012 161.81C335.618 161.81 336.202 161.752 336.762 161.635C337.345 161.495 337.812 161.262 338.162 160.935C338.535 160.608 338.722 160.153 338.722 159.57C338.722 158.917 338.477 158.427 337.987 158.1C337.52 157.75 336.948 157.505 336.272 157.365C335.595 157.202 334.965 157.073 334.382 156.98C332.305 156.653 330.31 156 328.397 155.02C326.507 154.017 324.955 152.722 323.742 151.135C322.528 149.525 321.922 147.647 321.922 145.5C321.922 143.097 322.54 141.02 323.777 139.27C325.013 137.52 326.623 136.178 328.607 135.245C330.613 134.288 332.772 133.81 335.082 133.81C337.812 133.81 340.332 134.37 342.642 135.49C344.975 136.61 346.888 138.22 348.382 140.32L340.122 145.22C339.842 144.87 339.492 144.52 339.072 144.17C338.675 143.797 338.208 143.482 337.672 143.225C337.158 142.945 336.598 142.77 335.992 142.7C335.175 142.63 334.44 142.665 333.787 142.805C333.157 142.922 332.655 143.178 332.282 143.575C331.908 143.948 331.722 144.497 331.722 145.22C331.722 145.897 332.048 146.387 332.702 146.69C333.355 146.993 334.09 147.215 334.907 147.355C335.723 147.495 336.388 147.647 336.902 147.81C338.908 148.463 340.798 149.315 342.572 150.365C344.345 151.415 345.768 152.687 346.842 154.18C347.938 155.673 348.452 157.423 348.382 159.43C348.382 161.763 347.682 163.817 346.282 165.59C344.882 167.363 343.073 168.705 340.857 169.615C338.64 170.525 336.295 170.863 333.822 170.63ZM372.148 145.5H366.198V170H355.698V145.5H351.148V135H355.698V124.01H366.198V135H372.148V145.5Z" fill="#06434E"/>
<g filter="url(#filter0_b_753_1565)">
<path d="M251.2 113L260.72 64H269.68L280.67 92.91L291.66 64H300.62L310.14 113H299.43L294.32 86.54L284.31 113H277.03L267.02 86.54L261.91 113H251.2ZM315.734 100.295V78H326.234V97.355C326.234 98.4517 326.502 99.455 327.039 100.365C327.576 101.252 328.287 101.963 329.174 102.5C330.084 103.013 331.076 103.27 332.149 103.27C333.246 103.27 334.237 103.013 335.124 102.5C336.034 101.963 336.746 101.252 337.259 100.365C337.796 99.455 338.064 98.4517 338.064 97.355V78H348.564L348.599 113H338.099L338.064 110.725C336.897 111.728 335.567 112.51 334.074 113.07C332.581 113.63 331.006 113.91 329.349 113.91C326.852 113.91 324.566 113.303 322.489 112.09C320.436 110.853 318.791 109.208 317.554 107.155C316.341 105.102 315.734 102.815 315.734 100.295ZM354.255 113L354.22 78H364.72L364.755 80.205C365.922 79.2017 367.252 78.42 368.745 77.86C370.239 77.3 371.814 77.02 373.47 77.02C374.73 77.02 376.014 77.2067 377.32 77.58L373.19 88.22C372.374 87.8467 371.534 87.66 370.67 87.66C369.574 87.66 368.57 87.9283 367.66 88.465C366.774 88.9783 366.062 89.69 365.525 90.6C365.012 91.4867 364.755 92.4783 364.755 93.575V113H354.255ZM403.175 78H413.675V113H403.14L402.65 109.85C401.787 111.063 400.69 112.043 399.36 112.79C398.053 113.537 396.525 113.91 394.775 113.91C392.162 113.91 389.712 113.42 387.425 112.44C385.162 111.46 383.167 110.107 381.44 108.38C379.713 106.63 378.36 104.623 377.38 102.36C376.423 100.073 375.945 97.6233 375.945 95.01C375.945 92.5133 376.4 90.18 377.31 88.01C378.22 85.84 379.492 83.9383 381.125 82.305C382.782 80.6483 384.683 79.3533 386.83 78.42C389 77.4867 391.322 77.02 393.795 77.02C395.802 77.02 397.622 77.44 399.255 78.28C400.912 79.0967 402.382 80.1233 403.665 81.36L403.175 78ZM394.495 103.83C395.942 103.83 397.26 103.457 398.45 102.71C399.64 101.963 400.585 100.96 401.285 99.7C401.985 98.44 402.335 97.04 402.335 95.5C402.335 93.96 401.985 92.56 401.285 91.3C400.585 90.04 399.64 89.0367 398.45 88.29C397.26 87.5433 395.942 87.17 394.495 87.17C393.048 87.17 391.73 87.5433 390.54 88.29C389.373 89.0367 388.44 90.04 387.74 91.3C387.063 92.56 386.725 93.96 386.725 95.5C386.725 97.04 387.075 98.44 387.775 99.7C388.475 100.96 389.408 101.963 390.575 102.71C391.765 103.457 393.072 103.83 394.495 103.83ZM419.301 113V60.5H429.801V113H419.301Z" fill="#06434E"/>
</g>
</g>
<defs>
<filter id="filter0_b_753_1565" x="153.362" y="-37.3375" width="374.277" height="249.085" filterUnits="userSpaceOnUse" color-interpolation-filters="sRGB">
<feFlood flood-opacity="0" result="BackgroundImageFix"/>
<feGaussianBlur in="BackgroundImageFix" stdDeviation="48.9188"/>
<feComposite in2="SourceAlpha" operator="in" result="effect1_backgroundBlur_753_1565"/>
<feBlend mode="normal" in="SourceGraphic" in2="effect1_backgroundBlur_753_1565" result="shape"/>
</filter>
<clipPath id="clip0_753_1565">
<rect width="477" height="236" fill="white"/>
</clipPath>
</defs>
</svg>
