<svg width="474" height="236" viewBox="0 0 474 236" fill="none" xmlns="http://www.w3.org/2000/svg">
<g opacity="0.45">
<path d="M132.824 161.047L151.702 162.052C151.702 162.052 143.063 165.528 138.18 167.8C133.297 170.072 126.755 173.66 126.755 173.66L107.877 172.654C107.877 172.654 116.173 169.157 121.05 166.888C125.927 164.619 132.824 161.047 132.824 161.047Z" fill="#B3B3B3"/>
<path d="M132.824 161.047L151.702 162.052C154.452 161.196 168.743 159.199 168.743 159.199L167.619 157.184L162.152 158.096L168.423 155.722L165.626 155.573L158.776 158.217L155.287 158.934L165.091 154.191L168.929 153.493L167.991 152.841L165.782 153.325L159.839 153.009L157.482 149.574L150.445 150.854L152.342 154.866L144.971 157.933C141.686 157.407 140.932 155.462 140.932 155.462L144.703 153.707L143.766 153.055L140.106 154.214L139.571 152.832L130.095 154.885C132.083 155.893 135.413 158.537 132.824 161.047Z" fill="#B3B3B3"/>
<path d="M195.56 140.921C189.472 143.754 178.589 145.734 171.252 145.343C163.916 144.952 162.903 142.339 168.991 139.507C175.079 136.674 185.962 134.694 193.299 135.085C200.635 135.476 201.648 138.089 195.56 140.921Z" fill="#B3B3B3"/>
<path d="M197.819 146.758C191.731 149.591 180.848 151.57 173.512 151.18C166.175 150.789 165.163 148.176 171.251 145.343C177.339 142.511 188.221 140.531 195.558 140.922C202.895 141.312 203.907 143.925 197.819 146.758Z" fill="#B3B3B3"/>
<path d="M189.594 152.036C183.506 154.868 172.623 156.848 165.286 156.457C157.95 156.067 156.938 153.454 163.025 150.621C169.113 147.788 179.996 145.809 187.333 146.199C194.67 146.59 195.682 149.203 189.594 152.036Z" fill="#B3B3B3"/>
<path d="M212.65 151.459C206.562 154.291 195.679 156.271 188.342 155.88C181.006 155.49 179.994 152.877 186.081 150.044C192.169 147.211 203.052 145.232 210.389 145.622C217.726 146.013 218.738 148.626 212.65 151.459Z" fill="#B3B3B3"/>
<path d="M189.891 159.873C183.803 162.706 172.92 164.686 165.584 164.295C158.247 163.904 157.235 161.291 163.323 158.459C169.411 155.626 180.293 153.647 187.63 154.037C194.967 154.428 195.979 157.041 189.891 159.873Z" fill="#B3B3B3"/>
<path d="M197.433 156.364C191.345 159.196 180.463 161.176 173.126 160.785C165.789 160.395 164.777 157.782 170.865 154.949C176.953 152.116 187.836 150.137 195.172 150.527C202.509 150.918 203.521 153.531 197.433 156.364Z" fill="#B3B3B3"/>
<path d="M173.271 150.565C167.183 153.397 156.301 155.377 148.964 154.986C141.627 154.596 140.615 151.983 146.703 149.15C152.791 146.317 163.674 144.338 171.01 144.728C178.347 145.119 179.359 147.732 173.271 150.565Z" fill="#B3B3B3"/>
<path d="M174.046 145.492C167.958 148.325 157.076 150.305 149.739 149.914C142.402 149.523 141.39 146.91 147.478 144.078C153.566 141.245 164.449 139.265 171.785 139.656C179.122 140.047 180.134 142.66 174.046 145.492Z" fill="#B3B3B3"/>
<path d="M162.683 151.506C156.595 154.338 145.712 156.318 138.375 155.927C131.039 155.537 130.027 152.924 136.114 150.091C142.202 147.258 153.085 145.279 160.422 145.669C167.759 146.06 168.771 148.673 162.683 151.506Z" fill="#B3B3B3"/>
<path d="M145.471 154.8C139.383 157.633 128.501 159.613 121.164 159.222C113.827 158.831 112.815 156.218 118.903 153.386C124.991 150.553 135.874 148.573 143.21 148.964C150.547 149.355 151.559 151.968 145.471 154.8Z" fill="#B3B3B3"/>
<path d="M129.285 155.443C123.197 158.276 112.314 160.255 104.977 159.865C97.6406 159.474 96.6283 156.861 102.716 154.028C108.804 151.196 119.687 149.216 127.024 149.607C134.36 149.997 135.373 152.611 129.285 155.443Z" fill="#B3B3B3"/>
<path d="M112.558 153.8C108.552 155.664 101.393 156.966 96.5658 156.709C91.739 156.452 91.0731 154.733 95.0783 152.87C99.0835 151.006 106.243 149.704 111.07 149.961C115.897 150.218 116.563 151.937 112.558 153.8Z" fill="#B3B3B3"/>
<path d="M127.91 151.008C123.905 152.871 116.745 154.174 111.918 153.917C107.091 153.66 106.426 151.941 110.431 150.077C114.436 148.213 121.596 146.911 126.422 147.168C131.249 147.425 131.915 149.144 127.91 151.008Z" fill="#B3B3B3"/>
<path d="M159.639 142.769C155.634 144.633 148.474 145.935 143.647 145.678C138.82 145.421 138.154 143.702 142.16 141.838C146.165 139.975 153.324 138.672 158.151 138.929C162.978 139.186 163.644 140.905 159.639 142.769Z" fill="#B3B3B3"/>
<path d="M116.722 150.412C112.717 152.275 105.558 153.578 100.731 153.321C95.904 153.064 95.238 151.344 99.2433 149.481C103.248 147.617 110.408 146.315 115.235 146.572C120.062 146.829 120.728 148.548 116.722 150.412Z" fill="#B3B3B3"/>
<path d="M207.034 141.382C203.028 143.245 195.869 144.548 191.042 144.291C186.215 144.034 185.549 142.315 189.554 140.451C193.56 138.588 200.719 137.285 205.546 137.542C210.373 137.799 211.039 139.518 207.034 141.382Z" fill="#B3B3B3"/>
<path d="M183.47 137.119C179.465 138.983 172.305 140.285 167.478 140.028C162.651 139.771 161.985 138.052 165.991 136.188C169.996 134.325 177.156 133.022 181.982 133.279C186.809 133.536 187.475 135.255 183.47 137.119Z" fill="#B3B3B3"/>
<path d="M200.191 130.79C196.186 132.653 189.026 133.955 184.199 133.698C179.372 133.441 178.706 131.722 182.712 129.859C186.717 127.995 193.877 126.693 198.703 126.95C203.53 127.207 204.196 128.926 200.191 130.79Z" fill="#B3B3B3"/>
<path d="M203.359 133.666C199.354 135.529 192.194 136.832 187.367 136.575C182.541 136.318 181.875 134.599 185.88 132.735C189.885 130.871 197.045 129.569 201.872 129.826C206.698 130.083 207.364 131.802 203.359 133.666Z" fill="#B3B3B3"/>
<path d="M211.541 137.109C207.535 138.973 200.376 140.275 195.549 140.018C190.722 139.761 190.056 138.042 194.061 136.179C198.067 134.315 205.226 133.013 210.053 133.27C214.88 133.527 215.546 135.246 211.541 137.109Z" fill="#B3B3B3"/>
<path d="M141.371 145.106C137.366 146.97 130.206 148.272 125.38 148.015C120.553 147.758 119.887 146.039 123.892 144.175C127.897 142.312 135.057 141.009 139.884 141.266C144.711 141.524 145.377 143.243 141.371 145.106Z" fill="#B3B3B3"/>
<path d="M171.007 136.756C167.002 138.62 159.842 139.922 155.015 139.665C150.188 139.408 149.522 137.689 153.528 135.825C157.533 133.962 164.692 132.659 169.519 132.916C174.346 133.173 175.012 134.893 171.007 136.756Z" fill="#B3B3B3"/>
<path d="M172.315 140.136C168.31 141.999 161.15 143.302 156.323 143.045C151.497 142.788 150.831 141.069 154.836 139.205C158.841 137.341 166.001 136.039 170.828 136.296C175.654 136.553 176.32 138.272 172.315 140.136Z" fill="#B3B3B3"/>
<path d="M127.403 146.168C123.398 148.031 116.238 149.334 111.411 149.077C106.585 148.82 105.919 147.101 109.924 145.237C113.929 143.373 121.089 142.071 125.915 142.328C130.742 142.585 131.408 144.304 127.403 146.168Z" fill="#B3B3B3"/>
<path d="M154.495 140.089C150.49 141.952 143.33 143.255 138.504 142.998C133.677 142.741 133.011 141.022 137.016 139.158C141.021 137.294 148.181 135.992 153.008 136.249C157.835 136.506 158.501 138.225 154.495 140.089Z" fill="#B3B3B3"/>
<path d="M187.756 134.038C183.751 135.902 176.591 137.204 171.764 136.947C166.938 136.69 166.272 134.971 170.277 133.107C174.282 131.244 181.442 129.941 186.269 130.198C191.095 130.455 191.761 132.174 187.756 134.038Z" fill="#B3B3B3"/>
<path d="M209.384 158.053C205.379 159.917 198.219 161.219 193.392 160.962C188.566 160.705 187.9 158.986 191.905 157.122C195.91 155.259 203.07 153.956 207.897 154.213C212.723 154.47 213.389 156.19 209.384 158.053Z" fill="#B3B3B3"/>
<path d="M226.03 156.834C222.025 158.698 214.865 160 210.039 159.743C205.212 159.486 204.546 157.767 208.551 155.903C212.556 154.04 219.716 152.737 224.543 152.994C229.37 153.251 230.036 154.97 226.03 156.834Z" fill="#B3B3B3"/>
<path d="M218.667 153.734C214.662 155.598 207.502 156.9 202.675 156.643C197.848 156.386 197.183 154.667 201.188 152.804C205.193 150.94 212.353 149.638 217.179 149.895C222.006 150.152 222.672 151.871 218.667 153.734Z" fill="#B3B3B3"/>
<path d="M215.322 143.327C211.316 145.191 204.157 146.493 199.33 146.236C194.503 145.979 193.837 144.26 197.842 142.397C201.848 140.533 209.007 139.231 213.834 139.488C218.661 139.745 219.327 141.464 215.322 143.327Z" fill="#B3B3B3"/>
<path d="M149.197 147.628C145.192 149.492 138.032 150.794 133.205 150.537C128.379 150.28 127.713 148.561 131.718 146.698C135.723 144.834 142.883 143.532 147.71 143.789C152.536 144.046 153.202 145.765 149.197 147.628Z" fill="#B3B3B3"/>
<path d="M204.522 147.265C200.516 149.129 193.357 150.431 188.53 150.174C183.703 149.917 183.037 148.198 187.042 146.334C191.048 144.471 198.207 143.168 203.034 143.425C207.861 143.682 208.527 145.401 204.522 147.265Z" fill="#B3B3B3"/>
</g>
<rect x="91.2598" y="109.424" width="44.396" height="26.545" rx="1.17" transform="rotate(-105 91.2598 109.424)" fill="#F98757"/>
<rect x="117.244" y="114.803" width="44.396" height="26.545" rx="1.17" transform="rotate(-75 117.244 114.803)" fill="#0090FF"/>
<rect x="140.697" y="142.791" width="44.396" height="26.545" rx="1.17" transform="rotate(-60 140.697 142.791)" fill="#FAA301"/>
<rect x="100.67" y="175.406" width="44.396" height="26.545" rx="1.17" transform="rotate(-90 100.67 175.406)" fill="#009393"/>
<rect x="72.4238" y="140.936" width="44.396" height="26.545" rx="1.17" transform="rotate(-120 72.4238 140.936)" fill="#00D0FF"/>
<path d="M253.2 168V119H282.32V129.5H263.7V136.5H278.96V147H263.7V168H253.2ZM299.124 168.91C295.904 168.91 292.964 168.082 290.304 166.425C287.667 164.768 285.555 162.54 283.969 159.74C282.405 156.94 281.624 153.848 281.624 150.465C281.624 147.922 282.079 145.542 282.989 143.325C283.899 141.085 285.147 139.125 286.734 137.445C288.344 135.742 290.21 134.412 292.334 133.455C294.457 132.498 296.72 132.02 299.124 132.02C301.924 132.02 304.479 132.638 306.789 133.875C309.122 135.088 311.082 136.745 312.669 138.845C314.279 140.922 315.422 143.267 316.099 145.88C316.775 148.493 316.845 151.188 316.309 153.965H292.964C293.29 154.782 293.722 155.528 294.259 156.205C294.819 156.858 295.495 157.383 296.289 157.78C297.105 158.177 298.05 158.387 299.124 158.41C300.15 158.433 301.095 158.212 301.959 157.745C302.845 157.278 303.615 156.648 304.269 155.855L314.979 158.34C313.555 161.443 311.432 163.987 308.609 165.97C305.785 167.93 302.624 168.91 299.124 168.91ZM292.579 146.265H305.704C305.377 145.262 304.887 144.375 304.234 143.605C303.58 142.835 302.81 142.228 301.924 141.785C301.06 141.342 300.127 141.12 299.124 141.12C298.144 141.12 297.21 141.342 296.324 141.785C295.46 142.228 294.702 142.835 294.049 143.605C293.419 144.375 292.929 145.262 292.579 146.265ZM330.822 168.63C329.048 168.467 327.345 168.082 325.712 167.475C324.078 166.868 322.62 166.04 321.337 164.99C320.053 163.94 319.038 162.657 318.292 161.14L327.112 157.36C327.345 157.617 327.672 157.943 328.092 158.34C328.512 158.713 329.037 159.052 329.667 159.355C330.32 159.658 331.102 159.81 332.012 159.81C332.618 159.81 333.202 159.752 333.762 159.635C334.345 159.495 334.812 159.262 335.162 158.935C335.535 158.608 335.722 158.153 335.722 157.57C335.722 156.917 335.477 156.427 334.987 156.1C334.52 155.75 333.948 155.505 333.272 155.365C332.595 155.202 331.965 155.073 331.382 154.98C329.305 154.653 327.31 154 325.397 153.02C323.507 152.017 321.955 150.722 320.742 149.135C319.528 147.525 318.922 145.647 318.922 143.5C318.922 141.097 319.54 139.02 320.777 137.27C322.013 135.52 323.623 134.178 325.607 133.245C327.613 132.288 329.772 131.81 332.082 131.81C334.812 131.81 337.332 132.37 339.642 133.49C341.975 134.61 343.888 136.22 345.382 138.32L337.122 143.22C336.842 142.87 336.492 142.52 336.072 142.17C335.675 141.797 335.208 141.482 334.672 141.225C334.158 140.945 333.598 140.77 332.992 140.7C332.175 140.63 331.44 140.665 330.787 140.805C330.157 140.922 329.655 141.178 329.282 141.575C328.908 141.948 328.722 142.497 328.722 143.22C328.722 143.897 329.048 144.387 329.702 144.69C330.355 144.993 331.09 145.215 331.907 145.355C332.723 145.495 333.388 145.647 333.902 145.81C335.908 146.463 337.798 147.315 339.572 148.365C341.345 149.415 342.768 150.687 343.842 152.18C344.938 153.673 345.452 155.423 345.382 157.43C345.382 159.763 344.682 161.817 343.282 163.59C341.882 165.363 340.073 166.705 337.857 167.615C335.64 168.525 333.295 168.863 330.822 168.63ZM369.148 143.5H363.198V168H352.698V143.5H348.148V133H352.698V122.01H363.198V133H369.148V143.5Z" fill="#F8F8F8"/>
<g filter="url(#filter0_b_753_1565)">
<path d="M248.2 111L257.72 62H266.68L277.67 90.91L288.66 62H297.62L307.14 111H296.43L291.32 84.54L281.31 111H274.03L264.02 84.54L258.91 111H248.2ZM312.734 98.295V76H323.234V95.355C323.234 96.4517 323.502 97.455 324.039 98.365C324.576 99.2517 325.287 99.9633 326.174 100.5C327.084 101.013 328.076 101.27 329.149 101.27C330.246 101.27 331.237 101.013 332.124 100.5C333.034 99.9633 333.746 99.2517 334.259 98.365C334.796 97.455 335.064 96.4517 335.064 95.355V76H345.564L345.599 111H335.099L335.064 108.725C333.897 109.728 332.567 110.51 331.074 111.07C329.581 111.63 328.006 111.91 326.349 111.91C323.852 111.91 321.566 111.303 319.489 110.09C317.436 108.853 315.791 107.208 314.554 105.155C313.341 103.102 312.734 100.815 312.734 98.295ZM351.255 111L351.22 76H361.72L361.755 78.205C362.922 77.2017 364.252 76.42 365.745 75.86C367.239 75.3 368.814 75.02 370.47 75.02C371.73 75.02 373.014 75.2067 374.32 75.58L370.19 86.22C369.374 85.8467 368.534 85.66 367.67 85.66C366.574 85.66 365.57 85.9283 364.66 86.465C363.774 86.9783 363.062 87.69 362.525 88.6C362.012 89.4867 361.755 90.4783 361.755 91.575V111H351.255ZM400.175 76H410.675V111H400.14L399.65 107.85C398.787 109.063 397.69 110.043 396.36 110.79C395.053 111.537 393.525 111.91 391.775 111.91C389.162 111.91 386.712 111.42 384.425 110.44C382.162 109.46 380.167 108.107 378.44 106.38C376.713 104.63 375.36 102.623 374.38 100.36C373.423 98.0733 372.945 95.6233 372.945 93.01C372.945 90.5133 373.4 88.18 374.31 86.01C375.22 83.84 376.492 81.9383 378.125 80.305C379.782 78.6483 381.683 77.3533 383.83 76.42C386 75.4867 388.322 75.02 390.795 75.02C392.802 75.02 394.622 75.44 396.255 76.28C397.912 77.0967 399.382 78.1233 400.665 79.36L400.175 76ZM391.495 101.83C392.942 101.83 394.26 101.457 395.45 100.71C396.64 99.9633 397.585 98.96 398.285 97.7C398.985 96.44 399.335 95.04 399.335 93.5C399.335 91.96 398.985 90.56 398.285 89.3C397.585 88.04 396.64 87.0367 395.45 86.29C394.26 85.5433 392.942 85.17 391.495 85.17C390.048 85.17 388.73 85.5433 387.54 86.29C386.373 87.0367 385.44 88.04 384.74 89.3C384.063 90.56 383.725 91.96 383.725 93.5C383.725 95.04 384.075 96.44 384.775 97.7C385.475 98.96 386.408 99.9633 387.575 100.71C388.765 101.457 390.072 101.83 391.495 101.83ZM416.301 111V58.5H426.801V111H416.301Z" fill="#F8F8F8"/>
</g>
<defs>
<filter id="filter0_b_753_1565" x="150.362" y="-39.3375" width="374.277" height="249.085" filterUnits="userSpaceOnUse" color-interpolation-filters="sRGB">
<feFlood flood-opacity="0" result="BackgroundImageFix"/>
<feGaussianBlur in="BackgroundImageFix" stdDeviation="48.9188"/>
<feComposite in2="SourceAlpha" operator="in" result="effect1_backgroundBlur_753_1565"/>
<feBlend mode="normal" in="SourceGraphic" in2="effect1_backgroundBlur_753_1565" result="shape"/>
</filter>
</defs>
</svg>
