<svg width="70" height="70" viewBox="0 0 70 70" fill="none" xmlns="http://www.w3.org/2000/svg">
<rect width="70" height="70" fill="white"/>
<rect x="2" y="2" width="66" height="66" fill="#00A881"/>
<path d="M16.6645 31.312C16.1285 31.312 15.7485 31.16 15.5245 30.856C15.3085 30.544 15.2005 30.076 15.2005 29.452C15.2005 29.052 15.2645 28.452 15.3925 27.652C15.5285 26.844 15.7165 25.776 15.9565 24.448L15.3205 23.164C15.6965 22.924 16.0965 22.72 16.5205 22.552C16.9445 22.376 17.3685 22.288 17.7925 22.288C18.1765 22.288 18.5125 22.348 18.8005 22.468C19.0965 22.58 19.3525 22.8 19.5685 23.128C19.7845 23.448 19.9645 23.92 20.1085 24.544C20.2605 25.16 20.3845 25.972 20.4805 26.98H20.6245C20.8165 26.428 21.0565 25.876 21.3445 25.324C21.6325 24.772 21.9765 24.268 22.3765 23.812C22.7765 23.356 23.2405 22.992 23.7685 22.72C24.3045 22.44 24.9125 22.3 25.5925 22.3C25.9685 22.3 26.2165 22.412 26.3365 22.636C26.4565 22.852 26.5165 23.112 26.5165 23.416C26.5165 23.544 26.4925 23.752 26.4445 24.04C26.4045 24.32 26.3485 24.648 26.2765 25.024C26.2045 25.392 26.1285 25.78 26.0485 26.188C25.9765 26.588 25.9045 26.98 25.8325 27.364C25.7605 27.74 25.7005 28.076 25.6525 28.372C25.6125 28.66 25.5925 28.88 25.5925 29.032C25.5925 29.44 25.6205 29.784 25.6765 30.064C25.7405 30.344 25.8325 30.58 25.9525 30.772C25.4725 31.132 24.9765 31.312 24.4645 31.312C23.9285 31.312 23.5485 31.16 23.3245 30.856C23.1085 30.544 23.0005 30.076 23.0005 29.452C23.0005 29.108 23.0485 28.616 23.1445 27.976C23.2485 27.336 23.3885 26.512 23.5645 25.504H23.3725C23.0285 25.96 22.7285 26.472 22.4725 27.04C22.2165 27.6 22.0125 28.16 21.8605 28.72C21.7165 29.272 21.6205 29.764 21.5725 30.196C21.3725 30.38 21.1525 30.52 20.9125 30.616C20.6805 30.704 20.4485 30.748 20.2165 30.748C20.0245 30.748 19.8445 30.676 19.6765 30.532C19.5085 30.38 19.3525 30.116 19.2085 29.74C19.0645 29.364 18.9365 28.836 18.8245 28.156C18.7205 27.468 18.6365 26.584 18.5725 25.504H18.3805C18.2765 25.96 18.1805 26.428 18.0925 26.908C18.0045 27.38 17.9325 27.808 17.8765 28.192C17.8205 28.576 17.7925 28.856 17.7925 29.032C17.7925 29.44 17.8205 29.784 17.8765 30.064C17.9405 30.344 18.0325 30.58 18.1525 30.772C17.6725 31.132 17.1765 31.312 16.6645 31.312ZM29.5901 31.3C29.0941 31.3 28.7061 31.212 28.4261 31.036C28.1541 30.868 27.9621 30.64 27.8501 30.352C27.7461 30.056 27.6941 29.724 27.6941 29.356C27.6941 28.932 27.7381 28.488 27.8261 28.024C27.9141 27.552 28.0021 27.096 28.0901 26.656C28.1781 26.208 28.2221 25.816 28.2221 25.48C28.2221 24.984 28.1381 24.62 27.9701 24.388C28.2981 24.212 28.6381 24.072 28.9901 23.968C29.3501 23.856 29.6381 23.8 29.8541 23.8C30.1821 23.8 30.4181 23.868 30.5621 24.004C30.7141 24.132 30.7901 24.348 30.7901 24.652C30.7901 24.82 30.7661 25.052 30.7181 25.348C30.6701 25.636 30.6101 25.952 30.5381 26.296C30.4661 26.64 30.3901 26.988 30.3101 27.34C30.2381 27.684 30.1781 27.996 30.1301 28.276C30.0821 28.556 30.0581 28.776 30.0581 28.936C30.0581 29.232 30.1341 29.456 30.2861 29.608C30.4461 29.76 30.6381 29.836 30.8621 29.836C31.1181 29.836 31.3861 29.74 31.6661 29.548C31.9461 29.356 32.1781 29.076 32.3621 28.708C32.3941 28.532 32.4341 28.312 32.4821 28.048C32.5381 27.784 32.5981 27.504 32.6621 27.208C32.7341 26.904 32.7981 26.616 32.8541 26.344C32.9181 26.064 32.9741 25.828 33.0221 25.636L32.3021 24.676C32.6461 24.428 33.0141 24.22 33.4061 24.052C33.7981 23.884 34.1981 23.8 34.6061 23.8C34.9661 23.8 35.2221 23.868 35.3741 24.004C35.5341 24.132 35.6141 24.348 35.6141 24.652C35.6141 24.82 35.5821 25.052 35.5181 25.348C35.4621 25.644 35.3901 25.976 35.3021 26.344C35.2221 26.704 35.1381 27.08 35.0501 27.472C34.9621 27.864 34.8861 28.248 34.8221 28.624C34.7661 28.992 34.7381 29.324 34.7381 29.62C34.7381 29.86 34.7661 30.076 34.8221 30.268C34.8861 30.452 34.9821 30.6 35.1101 30.712C34.6621 31.104 34.1861 31.3 33.6821 31.3C33.1701 31.3 32.8141 31.184 32.6141 30.952C32.4141 30.72 32.3141 30.444 32.3141 30.124L32.1941 30.064C31.9301 30.456 31.5621 30.76 31.0901 30.976C30.6181 31.192 30.1181 31.3 29.5901 31.3ZM38.0941 31.3C37.6061 31.3 37.2581 31.172 37.0501 30.916C36.8421 30.66 36.7381 30.292 36.7381 29.812C36.7381 29.644 36.7621 29.388 36.8101 29.044C36.8581 28.692 36.9181 28.304 36.9901 27.88C37.0701 27.448 37.1541 27.016 37.2421 26.584C37.3301 26.152 37.4141 25.768 37.4941 25.432L36.8701 24.472C37.2861 24.288 37.6701 24.132 38.0221 24.004C38.3821 23.868 38.7021 23.8 38.9821 23.8C39.1901 23.8 39.3421 23.872 39.4381 24.016C39.5341 24.16 39.5821 24.344 39.5821 24.568C39.5821 24.824 39.5381 25.112 39.4501 25.432C39.3621 25.744 39.2741 26.04 39.1861 26.32L39.3061 26.38C39.5861 25.556 39.9021 24.92 40.2541 24.472C40.6141 24.024 41.0141 23.8 41.4541 23.8C41.7421 23.8 41.9741 23.864 42.1501 23.992C42.3261 24.112 42.4541 24.264 42.5341 24.448C42.6221 24.624 42.6661 24.796 42.6661 24.964C42.6661 25.228 42.5981 25.484 42.4621 25.732C42.3341 25.972 42.1261 26.172 41.8381 26.332C41.5501 26.484 41.1701 26.56 40.6981 26.56C40.5141 26.56 40.3341 26.6 40.1581 26.68C39.9821 26.76 39.8221 26.912 39.6781 27.136C39.5341 27.352 39.4181 27.66 39.3301 28.06C39.2501 28.46 39.2101 28.98 39.2101 29.62C39.2101 30.116 39.2941 30.48 39.4621 30.712C38.9661 31.104 38.5101 31.3 38.0941 31.3ZM44.7904 31.3C44.3424 31.3 43.9464 31.184 43.6024 30.952C43.2664 30.72 43.0064 30.392 42.8224 29.968C42.6384 29.544 42.5464 29.048 42.5464 28.48C42.5464 27.816 42.6624 27.2 42.8944 26.632C43.1344 26.064 43.4624 25.568 43.8784 25.144C44.3024 24.72 44.7984 24.392 45.3664 24.16C45.9344 23.92 46.5504 23.8 47.2144 23.8C47.4064 23.8 47.5704 23.808 47.7064 23.824C47.8504 23.832 48.0024 23.856 48.1624 23.896C48.2104 24.12 48.2384 24.316 48.2464 24.484C48.4304 24.364 48.6344 24.272 48.8584 24.208C49.0824 24.136 49.2904 24.1 49.4824 24.1C50.0664 24.1 50.3584 24.416 50.3584 25.048C50.3584 25.256 50.3184 25.54 50.2384 25.9C50.1664 26.252 50.0784 26.644 49.9744 27.076C49.8784 27.5 49.7904 27.936 49.7104 28.384C49.6384 28.824 49.6024 29.236 49.6024 29.62C49.6024 30.14 49.7264 30.504 49.9744 30.712C49.5264 31.104 49.0504 31.3 48.5464 31.3C48.0824 31.3 47.7384 31.156 47.5144 30.868C47.2984 30.58 47.1904 30.132 47.1904 29.524L47.0704 29.464C46.8544 30.04 46.5424 30.492 46.1344 30.82C45.7344 31.14 45.2864 31.3 44.7904 31.3ZM45.7384 29.116C46.0504 29.116 46.3544 29.004 46.6504 28.78C46.9464 28.556 47.1944 28.248 47.3944 27.856C47.4264 27.544 47.4584 27.252 47.4904 26.98C47.5304 26.7 47.5784 26.404 47.6344 26.092C47.6984 25.78 47.7744 25.412 47.8624 24.988C47.4544 24.988 47.0664 25.068 46.6984 25.228C46.3384 25.38 46.0144 25.592 45.7264 25.864C45.4384 26.136 45.2104 26.448 45.0424 26.8C44.8824 27.144 44.8024 27.508 44.8024 27.892C44.8024 28.284 44.8824 28.588 45.0424 28.804C45.2104 29.012 45.4424 29.116 45.7384 29.116ZM53.0983 31.3C52.6103 31.3 52.2623 31.148 52.0543 30.844C51.8463 30.54 51.7423 30.076 51.7423 29.452C51.7423 29.276 51.7623 29.016 51.8023 28.672C51.8503 28.328 51.9103 27.936 51.9823 27.496C52.0543 27.056 52.1343 26.6 52.2223 26.128C52.3103 25.648 52.3943 25.184 52.4743 24.736C52.5543 24.288 52.6263 23.888 52.6903 23.536L52.0183 22.576C52.4423 22.328 52.8463 22.12 53.2303 21.952C53.6143 21.784 53.9983 21.7 54.3823 21.7C54.7183 21.7 54.9503 21.768 55.0783 21.904C55.2143 22.032 55.2823 22.248 55.2823 22.552C55.2823 22.832 55.2463 23.184 55.1743 23.608C55.1023 24.024 55.0143 24.48 54.9103 24.976C54.8063 25.464 54.6983 25.968 54.5863 26.488C54.4823 27.008 54.3943 27.508 54.3223 27.988C54.2503 28.468 54.2143 28.904 54.2143 29.296C54.2143 29.608 54.2423 29.888 54.2983 30.136C54.3623 30.376 54.4583 30.568 54.5863 30.712C54.0263 31.104 53.5303 31.3 53.0983 31.3ZM23.4203 47.312C22.8843 47.312 22.5043 47.16 22.2803 46.856C22.0643 46.544 21.9563 46.076 21.9563 45.452C21.9563 45.052 22.0203 44.452 22.1483 43.652C22.2843 42.844 22.4723 41.776 22.7123 40.448L22.0763 39.164C22.4523 38.924 22.8523 38.72 23.2763 38.552C23.7003 38.376 24.1243 38.288 24.5483 38.288C24.8203 38.288 25.0203 38.352 25.1483 38.48C25.2843 38.608 25.3763 38.768 25.4243 38.96C25.8243 38.944 26.3203 38.88 26.9123 38.768C27.5043 38.656 28.0963 38.516 28.6883 38.348C28.7523 38.708 28.7843 39.012 28.7843 39.26C28.7843 39.612 28.6923 39.912 28.5083 40.16C28.3243 40.408 28.0763 40.596 27.7643 40.724C27.4603 40.844 27.1203 40.904 26.7443 40.904C26.4963 40.904 26.2563 40.872 26.0243 40.808C25.8003 40.744 25.5643 40.652 25.3163 40.532C25.2683 40.828 25.2083 41.152 25.1363 41.504C25.0643 41.848 24.9963 42.196 24.9323 42.548C25.0603 42.58 25.1883 42.604 25.3163 42.62C25.4443 42.636 25.5723 42.644 25.7003 42.644C25.8603 42.612 26.0403 42.572 26.2403 42.524C26.4483 42.468 26.6283 42.416 26.7803 42.368C26.8123 42.472 26.8283 42.58 26.8283 42.692C26.8363 42.796 26.8403 42.88 26.8403 42.944C26.8403 43.328 26.7083 43.608 26.4443 43.784C26.1883 43.96 25.8843 44.048 25.5323 44.048C25.3723 44.048 25.2243 44.04 25.0883 44.024C24.9523 44 24.8163 43.972 24.6803 43.94C24.5923 44.444 24.5483 44.808 24.5483 45.032C24.5483 45.44 24.5763 45.784 24.6323 46.064C24.6963 46.344 24.7883 46.58 24.9083 46.772C24.4283 47.132 23.9323 47.312 23.4203 47.312ZM31.431 47.3C30.687 47.3 30.059 47.168 29.547 46.904C29.035 46.64 28.647 46.272 28.383 45.8C28.127 45.32 27.999 44.768 27.999 44.144C27.999 43.496 28.115 42.908 28.347 42.38C28.587 41.844 28.919 41.384 29.343 41C29.767 40.616 30.259 40.32 30.819 40.112C31.387 39.904 31.999 39.8 32.655 39.8C33.431 39.8 34.003 39.972 34.371 40.316C34.739 40.66 34.923 41.092 34.923 41.612C34.923 42.06 34.775 42.484 34.479 42.884C34.191 43.276 33.723 43.596 33.075 43.844C32.427 44.084 31.563 44.208 30.483 44.216C30.507 44.728 30.623 45.132 30.831 45.428C31.047 45.716 31.315 45.86 31.635 45.86C31.795 45.86 31.963 45.824 32.139 45.752C32.315 45.672 32.463 45.536 32.583 45.344C32.703 45.144 32.763 44.872 32.763 44.528C33.307 44.528 33.735 44.588 34.047 44.708C34.359 44.828 34.515 45.044 34.515 45.356C34.515 45.644 34.391 45.94 34.143 46.244C33.895 46.54 33.539 46.792 33.075 47C32.619 47.2 32.071 47.3 31.431 47.3ZM30.591 43.256C31.175 43.208 31.643 43.1 31.995 42.932C32.347 42.764 32.603 42.572 32.763 42.356C32.923 42.14 33.003 41.94 33.003 41.756C33.003 41.596 32.955 41.464 32.859 41.36C32.763 41.256 32.627 41.204 32.451 41.204C32.163 41.204 31.895 41.304 31.647 41.504C31.399 41.704 31.183 41.964 30.999 42.284C30.823 42.596 30.687 42.92 30.591 43.256ZM38.8617 47.3C38.1097 47.3 37.5097 47.24 37.0617 47.12C36.6217 47.008 36.3057 46.852 36.1137 46.652C35.9217 46.452 35.8257 46.232 35.8257 45.992C35.8257 45.808 35.8737 45.596 35.9697 45.356C36.0737 45.116 36.2217 44.888 36.4137 44.672C36.5497 44.856 36.7297 45.028 36.9537 45.188C37.1857 45.34 37.4377 45.464 37.7097 45.56C37.9817 45.648 38.2457 45.692 38.5017 45.692C38.7817 45.692 39.0337 45.628 39.2577 45.5C39.4817 45.364 39.6297 45.136 39.7017 44.816C38.4697 44.672 37.5857 44.4 37.0497 44C36.5137 43.592 36.2457 43.028 36.2457 42.308C36.2457 41.852 36.3537 41.464 36.5697 41.144C36.7857 40.824 37.0737 40.568 37.4337 40.376C37.8017 40.176 38.2177 40.032 38.6817 39.944C39.1537 39.848 39.6417 39.8 40.1457 39.8C40.6177 39.8 41.0377 39.864 41.4057 39.992C41.7737 40.112 42.0617 40.276 42.2697 40.484C42.4777 40.692 42.5817 40.932 42.5817 41.204C42.5817 41.588 42.4417 41.88 42.1617 42.08C41.8897 42.28 41.5777 42.38 41.2257 42.38C40.9857 42.38 40.7337 42.3 40.4697 42.14C40.2057 41.98 39.9937 41.732 39.8337 41.396C39.5377 41.484 39.3017 41.612 39.1257 41.78C38.9497 41.94 38.7937 42.172 38.6577 42.476C39.5697 42.612 40.2937 42.784 40.8297 42.992C41.3657 43.2 41.7497 43.464 41.9817 43.784C42.2217 44.096 42.3417 44.484 42.3417 44.948C42.3417 45.316 42.2577 45.636 42.0897 45.908C41.9297 46.18 41.7177 46.404 41.4537 46.58C41.1897 46.756 40.9017 46.896 40.5897 47C40.2777 47.112 39.9697 47.188 39.6657 47.228C39.3617 47.276 39.0937 47.3 38.8617 47.3ZM45.7806 47.3C45.2686 47.3 44.9046 47.148 44.6886 46.844C44.4726 46.54 44.3646 46.076 44.3646 45.452C44.3646 45.276 44.3846 45.028 44.4246 44.708C44.4646 44.38 44.5166 44.016 44.5806 43.616C44.6526 43.216 44.7206 42.82 44.7846 42.428C44.6166 42.46 44.4526 42.496 44.2926 42.536C44.1406 42.576 43.9966 42.62 43.8606 42.668C43.8286 42.548 43.8046 42.428 43.7886 42.308C43.7806 42.188 43.7766 42.1 43.7766 42.044C43.7766 41.628 43.8966 41.328 44.1366 41.144C44.3846 40.952 44.6806 40.856 45.0246 40.856C45.0246 40.672 45.0006 40.468 44.9526 40.244C44.9046 40.02 44.8206 39.772 44.7006 39.5C45.0366 39.252 45.3726 39.044 45.7086 38.876C46.0446 38.708 46.4166 38.624 46.8246 38.624C47.1766 38.624 47.4206 38.692 47.5566 38.828C47.6926 38.956 47.7606 39.172 47.7606 39.476C47.7606 39.628 47.7446 39.808 47.7126 40.016C47.6806 40.224 47.6406 40.452 47.5926 40.7C47.7686 40.676 47.9366 40.648 48.0966 40.616C48.2566 40.576 48.4126 40.536 48.5646 40.496C48.5966 40.584 48.6166 40.676 48.6246 40.772C48.6406 40.86 48.6486 40.948 48.6486 41.036C48.6486 41.356 48.5486 41.636 48.3486 41.876C48.1566 42.108 47.8566 42.224 47.4486 42.224H47.2686C47.1566 42.736 47.0566 43.26 46.9686 43.796C46.8806 44.332 46.8366 44.832 46.8366 45.296C46.8366 45.608 46.8646 45.888 46.9206 46.136C46.9846 46.376 47.0806 46.568 47.2086 46.712C46.7606 47.104 46.2846 47.3 45.7806 47.3Z" fill="white"/>
</svg>
