<?xml version="1.0" encoding="UTF-8" standalone="no"?>
<!-- Created with Inkscape (http://www.inkscape.org/) -->

<svg
   xmlns:dc="http://purl.org/dc/elements/1.1/"
   xmlns:cc="http://creativecommons.org/ns#"
   xmlns:rdf="http://www.w3.org/1999/02/22-rdf-syntax-ns#"
   xmlns:svg="http://www.w3.org/2000/svg"
   xmlns="http://www.w3.org/2000/svg"
   xmlns:sodipodi="http://sodipodi.sourceforge.net/DTD/sodipodi-0.dtd"
   xmlns:inkscape="http://www.inkscape.org/namespaces/inkscape"
   width="5.3930402mm"
   height="3.968785mm"
   viewBox="0 0 5.3930401 3.968785"
   version="1.1"
   id="svg8"
   inkscape:version="0.92.4 (5da689c313, 2019-01-14)"
   sodipodi:docname="tickets.svg">
  <defs
     id="defs2" />
  <sodipodi:namedview
     id="base"
     pagecolor="#ffffff"
     bordercolor="#666666"
     borderopacity="1.0"
     inkscape:pageopacity="0.0"
     inkscape:pageshadow="2"
     inkscape:zoom="15.839192"
     inkscape:cx="-1.9714919"
     inkscape:cy="5.9970243"
     inkscape:document-units="mm"
     inkscape:current-layer="layer1"
     showgrid="false"
     inkscape:snap-global="false"
     fit-margin-top="0"
     fit-margin-left="0"
     fit-margin-right="0"
     fit-margin-bottom="0"
     inkscape:window-width="1920"
     inkscape:window-height="974"
     inkscape:window-x="-11"
     inkscape:window-y="-11"
     inkscape:window-maximized="1" />
  <metadata
     id="metadata5">
    <rdf:RDF>
      <cc:Work
         rdf:about="">
        <dc:format>image/svg+xml</dc:format>
        <dc:type
           rdf:resource="http://purl.org/dc/dcmitype/StillImage" />
        <dc:title></dc:title>
      </cc:Work>
    </rdf:RDF>
  </metadata>
  <g
     inkscape:label="Layer 1"
     inkscape:groupmode="layer"
     id="layer1"
     transform="translate(410.10641,-42.341152)">
    <path
       style="opacity:1;fill:#0090ff;fill-opacity:1;stroke:none;stroke-width:0.00854052;stroke-linecap:round;stroke-linejoin:round;stroke-miterlimit:4;stroke-dasharray:none;stroke-dashoffset:0;stroke-opacity:1;paint-order:normal"
       d="m -405.31135,44.137534 -4.07409,1.300125 a 0.4598956,0.42451903 12.10516 0 1 -9e-5,0.01503 l 0.18164,0.03896 3.63367,0.779328 0.18163,0.03896 a 0.4598956,0.42451903 12.10516 0 1 0.37776,-0.268517 l 0.064,-0.298361 a 0.4598956,0.42451903 12.10516 0 1 -0.26765,-0.481222 0.4598956,0.42451903 12.10516 0 1 0.44151,-0.329387 l 0.0596,-0.277744 a 0.4598956,0.42451903 12.10516 0 1 -0.21334,-0.43467 l -0.19464,-0.04175 z"
       id="rect4518-3-3"
       inkscape:connector-curvature="0" />
    <path
       style="opacity:1;fill:#faa301;fill-opacity:1;stroke:none;stroke-width:0.00854052;stroke-linecap:round;stroke-linejoin:round;stroke-miterlimit:4;stroke-dasharray:none;stroke-dashoffset:0;stroke-opacity:1;paint-order:normal"
       d="m -409.93645,43.591986 a 0.42451903,0.4598956 72.301164 0 1 -0.16996,0.453398 l 0.0864,0.270611 a 0.42451903,0.4598956 72.301164 0 1 0.47151,0.284791 0.42451903,0.4598956 72.301164 0 1 -0.21947,0.505017 l 0.0928,0.290701 a 0.42451903,0.4598956 72.301164 0 1 0.40213,0.230421 l 0.17697,-0.05647 3.54041,-1.129808 0.17697,-0.05647 a 0.42451903,0.4598956 72.301164 0 1 0.19433,-0.420764 l -0.0928,-0.290701 a 0.42451903,0.4598956 72.301164 0 1 -0.47143,-0.284537 0.42451903,0.4598956 72.301164 0 1 0.21939,-0.505271 l -0.0864,-0.270611 a 0.42451903,0.4598956 72.301164 0 1 -0.40117,-0.271141 l -0.18964,0.06052 -3.5404,1.129808 z"
       id="rect4518"
       inkscape:connector-curvature="0" />
  </g>
</svg>
